<svg width="57" height="57" viewBox="0 0 57 57" fill="none" xmlns="http://www.w3.org/2000/svg">
<g clip-path="url(#clip0_34_309)">
<path d="M28.4997 53.8333C33.5101 53.8333 38.4081 52.3475 42.5741 49.5639C46.7402 46.7802 49.9872 42.8237 51.9046 38.1946C53.822 33.5656 54.3237 28.4719 53.3462 23.5577C52.3687 18.6435 49.956 14.1295 46.413 10.5866C42.8701 7.04367 38.3561 4.63091 33.4419 3.65342C28.5278 2.67592 23.4341 3.17761 18.805 5.09503C14.176 7.01245 10.2194 10.2595 7.43576 14.4255C4.6521 18.5916 3.16633 23.4895 3.16633 28.5C3.16633 35.2188 5.83537 41.6624 10.5863 46.4134C15.3372 51.1643 21.7808 53.8333 28.4997 53.8333ZM28.4997 6.33331C32.8838 6.33331 37.1695 7.63336 40.8148 10.0691C44.4601 12.5048 47.3012 15.9667 48.979 20.0172C50.6567 24.0676 51.0957 28.5246 50.2404 32.8245C49.3851 37.1244 47.2739 41.0741 44.1739 44.1742C41.0738 47.2742 37.1241 49.3854 32.8242 50.2407C28.5243 51.096 24.0673 50.6571 20.0168 48.9793C15.9664 47.3016 12.5045 44.4604 10.0687 40.8151C7.63305 37.1698 6.333 32.8841 6.333 28.5C6.333 22.621 8.66841 16.9828 12.8255 12.8258C16.9825 8.66872 22.6207 6.33331 28.4997 6.33331Z" fill="white"/>
<path d="M28.374 43.9217L40.4231 31.8725C40.5889 31.7306 40.7235 31.5559 40.8185 31.3595C40.9136 31.163 40.967 30.9491 40.9754 30.731C40.9838 30.513 40.9471 30.2955 40.8675 30.0923C40.7879 29.8892 40.6671 29.7046 40.5128 29.5503C40.3585 29.396 40.174 29.2753 39.9708 29.1957C39.7676 29.1161 39.5502 29.0793 39.3321 29.0878C39.1141 29.0962 38.9001 29.1496 38.7037 29.2446C38.5072 29.3397 38.3326 29.4743 38.1906 29.64L30.084 37.715L30.084 13.965C30.084 13.5451 29.9171 13.1424 29.6202 12.8454C29.3233 12.5485 28.9205 12.3817 28.5006 12.3817C28.0807 12.3817 27.678 12.5485 27.381 12.8454C27.0841 13.1424 26.9173 13.5451 26.9173 13.965L26.9173 38L18.5573 29.64C18.4153 29.4743 18.2407 29.3397 18.0442 29.2446C17.8478 29.1496 17.6338 29.0962 17.4158 29.0878C17.1977 29.0793 16.9803 29.1161 16.7771 29.1957C16.5739 29.2753 16.3894 29.396 16.2351 29.5503C16.0808 29.7046 15.96 29.8892 15.8804 30.0923C15.8008 30.2955 15.7641 30.513 15.7725 30.731C15.7809 30.9491 15.8343 31.163 15.9294 31.3595C16.0244 31.5559 16.159 31.7306 16.3248 31.8725L28.374 43.9217Z" fill="white"/>
</g>
<defs>
<clipPath id="clip0_34_309">
<rect width="57" height="57" fill="white" transform="translate(57 57) rotate(-180)"/>
</clipPath>
</defs>
</svg>
