<svg width="30" height="29" viewBox="0 0 30 29" fill="none" xmlns="http://www.w3.org/2000/svg">
<path d="M24.9896 3.13086H4.41505C3.92026 3.13086 3.52051 3.53061 3.52051 4.0254V24.5999C3.52051 25.0947 3.92026 25.4945 4.41505 25.4945H24.9896C25.4844 25.4945 25.8841 25.0947 25.8841 24.5999V4.0254C25.8841 3.53061 25.4844 3.13086 24.9896 3.13086ZM22.4066 9.65824H20.6203C19.2198 9.65824 18.9486 10.3236 18.9486 11.302V13.4573H22.292L21.8559 16.8314H18.9486V25.4945H15.4627V16.8342H12.547V13.4573H15.4627V10.9693C15.4627 8.0816 17.2266 6.50777 19.804 6.50777C21.0396 6.50777 22.0991 6.60002 22.4094 6.64195V9.65824H22.4066Z" fill="white"/>
</svg>
