<svg width="26" height="25" viewBox="0 0 26 25" fill="none" xmlns="http://www.w3.org/2000/svg">
<path fill-rule="evenodd" clip-rule="evenodd" d="M8.61527 1.13449C9.81447 1.07928 10.1968 1.06702 13.2516 1.06702C16.3063 1.06702 16.6887 1.08031 17.8868 1.13449C19.085 1.18867 19.9029 1.37985 20.6185 1.6569C21.3679 1.94009 22.0478 2.38276 22.61 2.95527C23.1825 3.51654 23.6242 4.19537 23.9064 4.94576C24.1844 5.6614 24.3746 6.47927 24.4298 7.6754C24.485 8.87665 24.4973 9.259 24.4973 12.3127C24.4973 15.3675 24.484 15.7498 24.4298 16.949C24.3756 18.1452 24.1844 18.963 23.9064 19.6787C23.6242 20.4291 23.1818 21.1091 22.61 21.6712C22.0478 22.2437 21.3679 22.6854 20.6185 22.9675C19.9029 23.2456 19.085 23.4357 17.8889 23.491C16.6887 23.5462 16.3063 23.5584 13.2516 23.5584C10.1968 23.5584 9.81447 23.5451 8.61527 23.491C7.41913 23.4368 6.60126 23.2456 5.88563 22.9675C5.13515 22.6853 4.45519 22.2429 3.89309 21.6712C3.32097 21.1096 2.87823 20.43 2.59575 19.6797C2.31869 18.964 2.12854 18.1462 2.07333 16.95C2.01813 15.7488 2.00586 15.3664 2.00586 12.3127C2.00586 9.25798 2.01915 8.87563 2.07333 7.67745C2.12752 6.47927 2.31869 5.6614 2.59575 4.94576C2.87865 4.19545 3.32173 3.51583 3.89412 2.95425C4.45542 2.38225 5.13469 1.93952 5.88461 1.6569C6.60024 1.37985 7.41811 1.1897 8.61424 1.13449H8.61527ZM17.7959 3.15872C16.6099 3.10453 16.2542 3.09329 13.2516 3.09329C10.249 3.09329 9.89319 3.10453 8.70728 3.15872C7.61031 3.20881 7.01531 3.39181 6.61864 3.54618C6.09418 3.75065 5.71899 3.99294 5.32539 4.38654C4.95228 4.74953 4.66514 5.19141 4.48503 5.6798C4.33065 6.07647 4.14766 6.67147 4.09756 7.76843C4.04338 8.95435 4.03213 9.31012 4.03213 12.3127C4.03213 15.3153 4.04338 15.6711 4.09756 16.857C4.14766 17.954 4.33065 18.549 4.48503 18.9456C4.66496 19.4333 4.95223 19.876 5.32539 20.2389C5.68832 20.6121 6.13099 20.8993 6.61864 21.0793C7.01531 21.2336 7.61031 21.4166 8.70728 21.4667C9.89319 21.5209 10.2479 21.5322 13.2516 21.5322C16.2552 21.5322 16.6099 21.5209 17.7959 21.4667C18.8928 21.4166 19.4878 21.2336 19.8845 21.0793C20.4089 20.8748 20.7841 20.6325 21.1777 20.2389C21.5509 19.876 21.8382 19.4333 22.0181 18.9456C22.1725 18.549 22.3555 17.954 22.4056 16.857C22.4598 15.6711 22.471 15.3153 22.471 12.3127C22.471 9.31012 22.4598 8.95435 22.4056 7.76843C22.3555 6.67147 22.1725 6.07647 22.0181 5.6798C21.8136 5.15534 21.5713 4.78014 21.1777 4.38654C20.8147 4.01346 20.3729 3.72633 19.8845 3.54618C19.4878 3.39181 18.8928 3.20881 17.7959 3.15872ZM11.8152 15.7795C12.6174 16.1134 13.5106 16.1585 14.3423 15.907C15.174 15.6555 15.8927 15.123 16.3754 14.4006C16.8582 13.6781 17.0752 12.8105 16.9893 11.9458C16.9034 11.0812 16.52 10.2731 15.9045 9.65976C15.5122 9.26767 15.0378 8.96744 14.5155 8.7807C13.9932 8.59395 13.436 8.52533 12.884 8.57978C12.332 8.63422 11.799 8.81038 11.3232 9.09556C10.8475 9.38074 10.4409 9.76786 10.1327 10.229C9.82455 10.6902 9.62246 11.214 9.54101 11.7627C9.45956 12.3113 9.50077 12.8712 9.66167 13.402C9.82257 13.9329 10.0992 14.4214 10.4715 14.8325C10.8439 15.2436 11.3028 15.567 11.8152 15.7795ZM9.16426 8.22542C9.70101 7.68867 10.3382 7.26289 11.0395 6.9724C11.7408 6.68192 12.4925 6.5324 13.2516 6.5324C14.0106 6.5324 14.7623 6.68191 15.4636 6.9724C16.1649 7.26289 16.8021 7.68867 17.3389 8.22542C17.8756 8.76217 18.3014 9.39939 18.5919 10.1007C18.8824 10.802 19.0319 11.5536 19.0319 12.3127C19.0319 13.0718 18.8824 13.8235 18.5919 14.5248C18.3014 15.2261 17.8756 15.8633 17.3389 16.4C16.2548 17.484 14.7846 18.093 13.2516 18.093C11.7185 18.093 10.2483 17.484 9.16426 16.4C8.08024 15.316 7.47125 13.8458 7.47125 12.3127C7.47125 10.7797 8.08024 9.30944 9.16426 8.22542ZM20.3139 7.39324C20.4469 7.26776 20.5534 7.11688 20.627 6.94952C20.7007 6.78215 20.74 6.60171 20.7427 6.41888C20.7453 6.23604 20.7113 6.05454 20.6425 5.8851C20.5738 5.71566 20.4718 5.56173 20.3425 5.43244C20.2132 5.30314 20.0592 5.2011 19.8898 5.13236C19.7204 5.06362 19.5388 5.02957 19.356 5.03223C19.1732 5.0349 18.9927 5.07422 18.8254 5.14787C18.658 5.22153 18.5071 5.32801 18.3817 5.46102C18.1376 5.7197 18.004 6.0633 18.0092 6.41888C18.0144 6.77446 18.158 7.11402 18.4094 7.36547C18.6609 7.61693 19.0004 7.76049 19.356 7.76567C19.7116 7.77086 20.0552 7.63726 20.3139 7.39324Z" fill="white"/>
</svg>
