<svg width="25" height="25" viewBox="0 0 25 25" fill="none" xmlns="http://www.w3.org/2000/svg">
<path fill-rule="evenodd" clip-rule="evenodd" d="M1.21094 2.94607C1.21094 2.44772 1.40891 1.96977 1.7613 1.61738C2.11369 1.26499 2.59164 1.06702 3.08999 1.06702H21.8212C22.0682 1.06662 22.3128 1.11493 22.5411 1.20919C22.7694 1.30346 22.9768 1.44182 23.1516 1.61636C23.3263 1.7909 23.4649 1.99819 23.5594 2.22636C23.6539 2.45453 23.7025 2.6991 23.7023 2.94607V21.6773C23.7026 21.9243 23.6542 22.169 23.5598 22.3973C23.4654 22.6256 23.327 22.833 23.1523 23.0077C22.9777 23.1824 22.7704 23.321 22.5421 23.4155C22.3139 23.51 22.0693 23.5586 21.8223 23.5584H3.08999C2.84315 23.5584 2.59872 23.5098 2.37067 23.4153C2.14263 23.3208 1.93544 23.1823 1.76094 23.0077C1.58644 22.8331 1.44805 22.6258 1.35368 22.3977C1.25931 22.1697 1.2108 21.9252 1.21094 21.6784V2.94607ZM10.1134 9.64238H13.159V11.1718C13.5986 10.2926 14.7232 9.5013 16.4131 9.5013C19.6529 9.5013 20.4206 11.2526 20.4206 14.4658V20.4178H17.142V15.1978C17.142 13.3678 16.7024 12.3352 15.586 12.3352C14.0372 12.3352 13.3931 13.4485 13.3931 15.1978V20.4178H10.1134V9.64238ZM4.49059 20.2778H7.77025V9.5013H4.49059V20.2767V20.2778ZM8.2395 5.9865C8.24569 6.26731 8.19572 6.54653 8.09253 6.80776C7.98934 7.069 7.83502 7.30699 7.63861 7.50777C7.4422 7.70856 7.20766 7.86809 6.94876 7.977C6.68986 8.08591 6.41181 8.14202 6.13093 8.14202C5.85006 8.14202 5.57201 8.08591 5.31311 7.977C5.05421 7.86809 4.81967 7.70856 4.62326 7.50777C4.42685 7.30699 4.27252 7.069 4.16934 6.80776C4.06615 6.54653 4.01618 6.26731 4.02236 5.9865C4.0345 5.43532 4.26198 4.91079 4.6561 4.52526C5.05021 4.13974 5.57961 3.92386 6.13093 3.92386C6.68226 3.92386 7.21166 4.13974 7.60577 4.52526C7.99988 4.91079 8.22737 5.43532 8.2395 5.9865Z" fill="white"/>
</svg>
