<svg width="241" height="60" viewBox="0 0 241 60" fill="none" xmlns="http://www.w3.org/2000/svg">
<path d="M60.3625 24.5L54.25 9.5H58V5.75H39.25V2H35.5V5.75H16.75V9.5H20.5L14.425 24.5H13V28.25H13.5625C14.1475 30.1175 15.3362 31.7375 16.9375 32.8625C18.5187 34.0091 20.4218 34.6265 22.375 34.6265C24.3282 34.6265 26.2313 34.0091 27.8125 32.8625C29.4151 31.7306 30.6114 30.1136 31.225 28.25H31.75V24.5H30.0625L23.8 9.5H35.5V39.5H28L26.5375 40.175L19.0375 49.5875L20.5 52.625H54.25L55.7125 49.5875L48.2125 40.175L46.75 39.5H39.25V9.5H50.9875L44.725 24.5H43V28.25H43.5625C44.1758 30.1079 45.3595 31.725 46.945 32.8713C48.5306 34.0176 50.4372 34.6347 52.3938 34.6347C54.3503 34.6347 56.2569 34.0176 57.8425 32.8713C59.428 31.725 60.6117 30.1079 61.225 28.25H61.75V24.5H60.3625ZM25.075 30.1625C24.248 30.6202 23.3202 30.865 22.375 30.875C21.441 30.8701 20.5241 30.6247 19.7125 30.1625C18.8849 29.7089 18.1877 29.0503 17.6875 28.25H27.0625C26.5666 29.0406 25.8841 29.6973 25.075 30.1625V30.1625ZM26.0125 24.5H18.5125L22.2625 15.5L26.0125 24.5ZM45.85 43.25L50.5 48.875H24.25L28.9 43.25H45.85ZM52.525 15.575L56.275 24.575H48.775L52.525 15.575V15.575ZM55.075 30.2375C54.2551 30.7127 53.3226 30.9587 52.375 30.95C51.4387 30.9633 50.517 30.7167 49.7125 30.2375C48.8837 29.7525 48.188 29.0696 47.6875 28.25H57.0625C56.5976 29.0844 55.9094 29.7726 55.075 30.2375V30.2375Z" fill="white"/>
<path d="M73.38 27.25V13.25H79.14C80.38 13.25 81.44 13.45 82.32 13.85C83.2133 14.25 83.9 14.8233 84.38 15.57C84.86 16.3167 85.1 17.2033 85.1 18.23C85.1 19.2567 84.86 20.1433 84.38 20.89C83.9 21.6367 83.2133 22.21 82.32 22.61C81.44 23.01 80.38 23.21 79.14 23.21H74.82L75.98 21.99V27.25H73.38ZM75.98 22.27L74.82 21.01H79.02C80.1667 21.01 81.0267 20.77 81.6 20.29C82.1867 19.7967 82.48 19.11 82.48 18.23C82.48 17.3367 82.1867 16.65 81.6 16.17C81.0267 15.69 80.1667 15.45 79.02 15.45H74.82L75.98 14.17V22.27ZM92.6873 27.39C91.5007 27.39 90.4607 27.1567 89.5673 26.69C88.6873 26.21 88.0007 25.5567 87.5073 24.73C87.0273 23.9033 86.7873 22.9633 86.7873 21.91C86.7873 20.8433 87.0207 19.9033 87.4873 19.09C87.9673 18.2633 88.6207 17.6167 89.4473 17.15C90.2873 16.6833 91.2407 16.45 92.3073 16.45C93.3473 16.45 94.274 16.6767 95.0873 17.13C95.9007 17.5833 96.5407 18.2233 97.0073 19.05C97.474 19.8767 97.7073 20.85 97.7073 21.97C97.7073 22.0767 97.7007 22.1967 97.6873 22.33C97.6873 22.4633 97.6807 22.59 97.6673 22.71H88.7673V21.05H96.3473L95.3673 21.57C95.3807 20.9567 95.254 20.4167 94.9873 19.95C94.7207 19.4833 94.354 19.1167 93.8873 18.85C93.434 18.5833 92.9073 18.45 92.3073 18.45C91.694 18.45 91.154 18.5833 90.6873 18.85C90.234 19.1167 89.874 19.49 89.6073 19.97C89.354 20.4367 89.2273 20.99 89.2273 21.63V22.03C89.2273 22.67 89.374 23.2367 89.6673 23.73C89.9607 24.2233 90.374 24.6033 90.9073 24.87C91.4407 25.1367 92.054 25.27 92.7473 25.27C93.3473 25.27 93.8873 25.1767 94.3673 24.99C94.8473 24.8033 95.274 24.51 95.6473 24.11L96.9873 25.65C96.5073 26.21 95.9007 26.6433 95.1673 26.95C94.4473 27.2433 93.6207 27.39 92.6873 27.39ZM104.879 27.39C103.852 27.39 102.925 27.1633 102.099 26.71C101.285 26.2433 100.645 25.6033 100.179 24.79C99.7121 23.9767 99.4788 23.0167 99.4788 21.91C99.4788 20.8033 99.7121 19.8433 100.179 19.03C100.645 18.2167 101.285 17.5833 102.099 17.13C102.925 16.6767 103.852 16.45 104.879 16.45C105.772 16.45 106.572 16.65 107.279 17.05C107.985 17.4367 108.545 18.03 108.959 18.83C109.372 19.63 109.579 20.6567 109.579 21.91C109.579 23.15 109.379 24.1767 108.979 24.99C108.579 25.79 108.025 26.39 107.319 26.79C106.612 27.19 105.799 27.39 104.879 27.39ZM105.179 25.25C105.779 25.25 106.312 25.1167 106.779 24.85C107.259 24.5833 107.639 24.1967 107.919 23.69C108.212 23.1833 108.359 22.59 108.359 21.91C108.359 21.2167 108.212 20.6233 107.919 20.13C107.639 19.6233 107.259 19.2367 106.779 18.97C106.312 18.7033 105.779 18.57 105.179 18.57C104.579 18.57 104.039 18.7033 103.559 18.97C103.092 19.2367 102.712 19.6233 102.419 20.13C102.139 20.6233 101.999 21.2167 101.999 21.91C101.999 22.59 102.139 23.1833 102.419 23.69C102.712 24.1967 103.092 24.5833 103.559 24.85C104.039 25.1167 104.579 25.25 105.179 25.25ZM108.419 27.25V24.73L108.519 21.89L108.319 19.05V12.41H110.799V27.25H108.419ZM114.339 27.25V16.57H116.719V19.51L116.439 18.65C116.759 17.93 117.259 17.3833 117.939 17.01C118.633 16.6367 119.493 16.45 120.519 16.45V18.83C120.413 18.8033 120.313 18.79 120.219 18.79C120.126 18.7767 120.033 18.77 119.939 18.77C118.993 18.77 118.239 19.05 117.679 19.61C117.119 20.1567 116.839 20.9767 116.839 22.07V27.25H114.339ZM127.592 27.39C126.499 27.39 125.526 27.1567 124.672 26.69C123.819 26.21 123.146 25.5567 122.652 24.73C122.159 23.9033 121.912 22.9633 121.912 21.91C121.912 20.8433 122.159 19.9033 122.652 19.09C123.146 18.2633 123.819 17.6167 124.672 17.15C125.526 16.6833 126.499 16.45 127.592 16.45C128.699 16.45 129.679 16.6833 130.532 17.15C131.399 17.6167 132.072 18.2567 132.552 19.07C133.046 19.8833 133.292 20.83 133.292 21.91C133.292 22.9633 133.046 23.9033 132.552 24.73C132.072 25.5567 131.399 26.21 130.532 26.69C129.679 27.1567 128.699 27.39 127.592 27.39ZM127.592 25.25C128.206 25.25 128.752 25.1167 129.232 24.85C129.712 24.5833 130.086 24.1967 130.352 23.69C130.632 23.1833 130.772 22.59 130.772 21.91C130.772 21.2167 130.632 20.6233 130.352 20.13C130.086 19.6233 129.712 19.2367 129.232 18.97C128.752 18.7033 128.212 18.57 127.612 18.57C126.999 18.57 126.452 18.7033 125.972 18.97C125.506 19.2367 125.132 19.6233 124.852 20.13C124.572 20.6233 124.432 21.2167 124.432 21.91C124.432 22.59 124.572 23.1833 124.852 23.69C125.132 24.1967 125.506 24.5833 125.972 24.85C126.452 25.1167 126.992 25.25 127.592 25.25ZM141.95 27.25V13.25H144.09L150.21 23.47H149.09L155.11 13.25H157.25L157.27 27.25H154.81L154.79 17.11H155.31L150.19 25.65H149.03L143.83 17.11H144.43V27.25H141.95ZM166.082 27.39C164.895 27.39 163.855 27.1567 162.962 26.69C162.082 26.21 161.395 25.5567 160.902 24.73C160.422 23.9033 160.182 22.9633 160.182 21.91C160.182 20.8433 160.415 19.9033 160.882 19.09C161.362 18.2633 162.015 17.6167 162.842 17.15C163.682 16.6833 164.635 16.45 165.702 16.45C166.742 16.45 167.669 16.6767 168.482 17.13C169.295 17.5833 169.935 18.2233 170.402 19.05C170.869 19.8767 171.102 20.85 171.102 21.97C171.102 22.0767 171.095 22.1967 171.082 22.33C171.082 22.4633 171.075 22.59 171.062 22.71H162.162V21.05H169.742L168.762 21.57C168.775 20.9567 168.649 20.4167 168.382 19.95C168.115 19.4833 167.749 19.1167 167.282 18.85C166.829 18.5833 166.302 18.45 165.702 18.45C165.089 18.45 164.549 18.5833 164.082 18.85C163.629 19.1167 163.269 19.49 163.002 19.97C162.749 20.4367 162.622 20.99 162.622 21.63V22.03C162.622 22.67 162.769 23.2367 163.062 23.73C163.355 24.2233 163.769 24.6033 164.302 24.87C164.835 25.1367 165.449 25.27 166.142 25.27C166.742 25.27 167.282 25.1767 167.762 24.99C168.242 24.8033 168.669 24.51 169.042 24.11L170.382 25.65C169.902 26.21 169.295 26.6433 168.562 26.95C167.842 27.2433 167.015 27.39 166.082 27.39ZM179.813 16.45C180.667 16.45 181.427 16.6167 182.093 16.95C182.773 17.2833 183.307 17.7967 183.693 18.49C184.08 19.17 184.273 20.05 184.273 21.13V27.25H181.773V21.45C181.773 20.5033 181.547 19.7967 181.093 19.33C180.653 18.8633 180.033 18.63 179.233 18.63C178.647 18.63 178.127 18.75 177.673 18.99C177.22 19.23 176.867 19.59 176.613 20.07C176.373 20.5367 176.253 21.13 176.253 21.85V27.25H173.753V16.57H176.133V19.45L175.713 18.57C176.087 17.89 176.627 17.37 177.333 17.01C178.053 16.6367 178.88 16.45 179.813 16.45ZM192.734 27.39C191.548 27.39 190.508 27.1567 189.614 26.69C188.734 26.21 188.048 25.5567 187.554 24.73C187.074 23.9033 186.834 22.9633 186.834 21.91C186.834 20.8433 187.068 19.9033 187.534 19.09C188.014 18.2633 188.668 17.6167 189.494 17.15C190.334 16.6833 191.288 16.45 192.354 16.45C193.394 16.45 194.321 16.6767 195.134 17.13C195.948 17.5833 196.588 18.2233 197.054 19.05C197.521 19.8767 197.754 20.85 197.754 21.97C197.754 22.0767 197.748 22.1967 197.734 22.33C197.734 22.4633 197.728 22.59 197.714 22.71H188.814V21.05H196.394L195.414 21.57C195.428 20.9567 195.301 20.4167 195.034 19.95C194.768 19.4833 194.401 19.1167 193.934 18.85C193.481 18.5833 192.954 18.45 192.354 18.45C191.741 18.45 191.201 18.5833 190.734 18.85C190.281 19.1167 189.921 19.49 189.654 19.97C189.401 20.4367 189.274 20.99 189.274 21.63V22.03C189.274 22.67 189.421 23.2367 189.714 23.73C190.008 24.2233 190.421 24.6033 190.954 24.87C191.488 25.1367 192.101 25.27 192.794 25.27C193.394 25.27 193.934 25.1767 194.414 24.99C194.894 24.8033 195.321 24.51 195.694 24.11L197.034 25.65C196.554 26.21 195.948 26.6433 195.214 26.95C194.494 27.2433 193.668 27.39 192.734 27.39ZM199.428 27.25V25.67L206.008 17.71L206.468 18.57H199.548V16.57H208.468V18.15L201.888 26.11L201.388 25.25H208.648V27.25H199.428ZM216.066 27.39C214.88 27.39 213.84 27.1567 212.946 26.69C212.066 26.21 211.38 25.5567 210.886 24.73C210.406 23.9033 210.166 22.9633 210.166 21.91C210.166 20.8433 210.4 19.9033 210.866 19.09C211.346 18.2633 212 17.6167 212.826 17.15C213.666 16.6833 214.62 16.45 215.686 16.45C216.726 16.45 217.653 16.6767 218.466 17.13C219.28 17.5833 219.92 18.2233 220.386 19.05C220.853 19.8767 221.086 20.85 221.086 21.97C221.086 22.0767 221.08 22.1967 221.066 22.33C221.066 22.4633 221.06 22.59 221.046 22.71H212.146V21.05H219.726L218.746 21.57C218.76 20.9567 218.633 20.4167 218.366 19.95C218.1 19.4833 217.733 19.1167 217.266 18.85C216.813 18.5833 216.286 18.45 215.686 18.45C215.073 18.45 214.533 18.5833 214.066 18.85C213.613 19.1167 213.253 19.49 212.986 19.97C212.733 20.4367 212.606 20.99 212.606 21.63V22.03C212.606 22.67 212.753 23.2367 213.046 23.73C213.34 24.2233 213.753 24.6033 214.286 24.87C214.82 25.1367 215.433 25.27 216.126 25.27C216.726 25.27 217.266 25.1767 217.746 24.99C218.226 24.8033 218.653 24.51 219.026 24.11L220.366 25.65C219.886 26.21 219.28 26.6433 218.546 26.95C217.826 27.2433 217 27.39 216.066 27.39ZM227.038 27.39C226.144 27.39 225.284 27.2767 224.458 27.05C223.644 26.81 222.998 26.5233 222.518 26.19L223.478 24.29C223.958 24.5967 224.531 24.85 225.198 25.05C225.864 25.25 226.531 25.35 227.198 25.35C227.984 25.35 228.551 25.2433 228.898 25.03C229.258 24.8167 229.438 24.53 229.438 24.17C229.438 23.8767 229.318 23.6567 229.078 23.51C228.838 23.35 228.524 23.23 228.138 23.15C227.751 23.07 227.318 22.9967 226.838 22.93C226.371 22.8633 225.898 22.7767 225.418 22.67C224.951 22.55 224.524 22.3833 224.138 22.17C223.751 21.9433 223.438 21.6433 223.198 21.27C222.958 20.8967 222.838 20.4033 222.838 19.79C222.838 19.11 223.031 18.5233 223.418 18.03C223.804 17.5233 224.344 17.1367 225.038 16.87C225.744 16.59 226.578 16.45 227.538 16.45C228.258 16.45 228.984 16.53 229.718 16.69C230.451 16.85 231.058 17.0767 231.538 17.37L230.578 19.27C230.071 18.9633 229.558 18.7567 229.038 18.65C228.531 18.53 228.024 18.47 227.518 18.47C226.758 18.47 226.191 18.5833 225.818 18.81C225.458 19.0367 225.278 19.3233 225.278 19.67C225.278 19.99 225.398 20.23 225.638 20.39C225.878 20.55 226.191 20.6767 226.578 20.77C226.964 20.8633 227.391 20.9433 227.858 21.01C228.338 21.0633 228.811 21.15 229.278 21.27C229.744 21.39 230.171 21.5567 230.558 21.77C230.958 21.97 231.278 22.2567 231.518 22.63C231.758 23.0033 231.878 23.49 231.878 24.09C231.878 24.7567 231.678 25.3367 231.278 25.83C230.891 26.3233 230.338 26.71 229.618 26.99C228.898 27.2567 228.038 27.39 227.038 27.39Z" fill="#F0F4F8"/>
<path d="M78.46 48.25V46.346L78.428 46.058V42.922C78.428 42.1433 78.2147 41.5513 77.788 41.146C77.372 40.7407 76.7587 40.538 75.948 40.538C75.372 40.538 74.8333 40.6393 74.332 40.842C73.8413 41.034 73.42 41.2847 73.068 41.594L72.668 41.018C73.084 40.6447 73.5853 40.3567 74.172 40.154C74.7587 39.9407 75.372 39.834 76.012 39.834C77.0467 39.834 77.8413 40.0953 78.396 40.618C78.9507 41.1407 79.228 41.9193 79.228 42.954V48.25H78.46ZM75.452 48.314C74.8333 48.314 74.2947 48.218 73.836 48.026C73.388 47.8233 73.0413 47.5407 72.796 47.178C72.5613 46.8153 72.444 46.3993 72.444 45.93C72.444 45.5033 72.54 45.1193 72.732 44.778C72.9347 44.426 73.2653 44.1433 73.724 43.93C74.1827 43.706 74.796 43.594 75.564 43.594H78.636V44.218H75.58C74.716 44.218 74.108 44.378 73.756 44.698C73.4147 45.018 73.244 45.418 73.244 45.898C73.244 46.4313 73.4467 46.858 73.852 47.178C74.2573 47.498 74.828 47.658 75.564 47.658C76.268 47.658 76.86 47.498 77.34 47.178C77.8307 46.858 78.1933 46.394 78.428 45.786L78.652 46.33C78.428 46.938 78.044 47.4233 77.5 47.786C76.9667 48.138 76.284 48.314 75.452 48.314ZM88.4901 48.314C87.7115 48.314 87.0075 48.138 86.3781 47.786C85.7595 47.4233 85.2688 46.922 84.9061 46.282C84.5435 45.642 84.3621 44.906 84.3621 44.074C84.3621 43.2313 84.5435 42.4953 84.9061 41.866C85.2688 41.226 85.7595 40.73 86.3781 40.378C87.0075 40.0153 87.7115 39.834 88.4901 39.834C89.2261 39.834 89.8875 40.0047 90.4741 40.346C91.0715 40.6873 91.5408 41.1727 91.8821 41.802C92.2341 42.4313 92.4101 43.1887 92.4101 44.074C92.4101 44.938 92.2395 45.69 91.8981 46.33C91.5568 46.97 91.0875 47.4607 90.4901 47.802C89.9035 48.1433 89.2368 48.314 88.4901 48.314ZM88.5381 47.594C89.1781 47.594 89.7488 47.45 90.2501 47.162C90.7621 46.8633 91.1621 46.4473 91.4501 45.914C91.7488 45.3807 91.8981 44.7673 91.8981 44.074C91.8981 43.37 91.7488 42.7567 91.4501 42.234C91.1621 41.7007 90.7621 41.29 90.2501 41.002C89.7488 40.7033 89.1781 40.554 88.5381 40.554C87.8981 40.554 87.3221 40.7033 86.8101 41.002C86.3088 41.29 85.9088 41.7007 85.6101 42.234C85.3221 42.7567 85.1781 43.37 85.1781 44.074C85.1781 44.7673 85.3221 45.3807 85.6101 45.914C85.9088 46.4473 86.3088 46.8633 86.8101 47.162C87.3221 47.45 87.8981 47.594 88.5381 47.594ZM91.9141 48.25V45.514L92.0581 44.058L91.8981 42.602V36.378H92.6981V48.25H91.9141ZM100.933 48.25L97.173 39.898H98.021L101.541 47.802H101.157L104.709 39.898H105.525L101.749 48.25H100.933ZM113.054 48.314C112.254 48.314 111.539 48.1327 110.91 47.77C110.291 47.4073 109.795 46.906 109.422 46.266C109.059 45.626 108.878 44.8953 108.878 44.074C108.878 43.242 109.059 42.5113 109.422 41.882C109.795 41.242 110.291 40.7407 110.91 40.378C111.539 40.0153 112.254 39.834 113.054 39.834C113.854 39.834 114.568 40.0153 115.198 40.378C115.827 40.7407 116.323 41.242 116.686 41.882C117.048 42.5113 117.23 43.242 117.23 44.074C117.23 44.8953 117.048 45.626 116.686 46.266C116.323 46.906 115.827 47.4073 115.198 47.77C114.568 48.1327 113.854 48.314 113.054 48.314ZM113.054 47.594C113.694 47.594 114.27 47.45 114.782 47.162C115.294 46.8633 115.694 46.4473 115.982 45.914C116.27 45.3807 116.414 44.7673 116.414 44.074C116.414 43.37 116.27 42.7567 115.982 42.234C115.694 41.7007 115.294 41.29 114.782 41.002C114.27 40.7033 113.694 40.554 113.054 40.554C112.414 40.554 111.838 40.7033 111.326 41.002C110.824 41.29 110.424 41.7007 110.126 42.234C109.838 42.7567 109.694 43.37 109.694 44.074C109.694 44.7673 109.838 45.3807 110.126 45.914C110.424 46.4473 110.824 46.8633 111.326 47.162C111.838 47.45 112.414 47.594 113.054 47.594ZM125.934 51.418C125.176 51.418 124.456 51.3007 123.774 51.066C123.091 50.8313 122.536 50.506 122.11 50.09L122.542 49.482C122.958 49.866 123.454 50.1647 124.03 50.378C124.616 50.5913 125.246 50.698 125.918 50.698C127.038 50.698 127.859 50.4367 128.382 49.914C128.915 49.3913 129.182 48.57 129.182 47.45V45.13L129.342 43.882L129.214 42.634V39.898H129.982V47.354C129.982 48.7513 129.64 49.7753 128.958 50.426C128.286 51.0873 127.278 51.418 125.934 51.418ZM125.71 47.946C124.92 47.946 124.211 47.7753 123.582 47.434C122.963 47.082 122.467 46.602 122.094 45.994C121.731 45.3753 121.55 44.6713 121.55 43.882C121.55 43.082 121.731 42.378 122.094 41.77C122.467 41.162 122.963 40.6873 123.582 40.346C124.211 40.0047 124.92 39.834 125.71 39.834C126.467 39.834 127.144 39.9993 127.742 40.33C128.35 40.65 128.83 41.114 129.182 41.722C129.534 42.3193 129.71 43.0393 129.71 43.882C129.71 44.714 129.534 45.434 129.182 46.042C128.83 46.65 128.35 47.1193 127.742 47.45C127.144 47.7807 126.467 47.946 125.71 47.946ZM125.774 47.226C126.446 47.226 127.038 47.0873 127.55 46.81C128.062 46.522 128.462 46.1273 128.75 45.626C129.048 45.114 129.198 44.5327 129.198 43.882C129.198 43.2207 129.048 42.6393 128.75 42.138C128.462 41.6367 128.062 41.2473 127.55 40.97C127.038 40.6927 126.446 40.554 125.774 40.554C125.123 40.554 124.536 40.6927 124.014 40.97C123.502 41.2473 123.096 41.6367 122.798 42.138C122.51 42.6393 122.366 43.2207 122.366 43.882C122.366 44.5327 122.51 45.114 122.798 45.626C123.096 46.1273 123.502 46.522 124.014 46.81C124.536 47.0873 125.123 47.226 125.774 47.226ZM141.382 48.25V46.346L141.35 46.058V42.922C141.35 42.1433 141.137 41.5513 140.71 41.146C140.294 40.7407 139.681 40.538 138.87 40.538C138.294 40.538 137.755 40.6393 137.254 40.842C136.763 41.034 136.342 41.2847 135.99 41.594L135.59 41.018C136.006 40.6447 136.507 40.3567 137.094 40.154C137.681 39.9407 138.294 39.834 138.934 39.834C139.969 39.834 140.763 40.0953 141.318 40.618C141.873 41.1407 142.15 41.9193 142.15 42.954V48.25H141.382ZM138.374 48.314C137.755 48.314 137.217 48.218 136.758 48.026C136.31 47.8233 135.963 47.5407 135.718 47.178C135.483 46.8153 135.366 46.3993 135.366 45.93C135.366 45.5033 135.462 45.1193 135.654 44.778C135.857 44.426 136.187 44.1433 136.646 43.93C137.105 43.706 137.718 43.594 138.486 43.594H141.558V44.218H138.502C137.638 44.218 137.03 44.378 136.678 44.698C136.337 45.018 136.166 45.418 136.166 45.898C136.166 46.4313 136.369 46.858 136.774 47.178C137.179 47.498 137.75 47.658 138.486 47.658C139.19 47.658 139.782 47.498 140.262 47.178C140.753 46.858 141.115 46.394 141.35 45.786L141.574 46.33C141.35 46.938 140.966 47.4233 140.422 47.786C139.889 48.138 139.206 48.314 138.374 48.314ZM151.412 48.314C150.633 48.314 149.929 48.138 149.3 47.786C148.681 47.4233 148.191 46.922 147.828 46.282C147.465 45.642 147.284 44.906 147.284 44.074C147.284 43.2313 147.465 42.4953 147.828 41.866C148.191 41.226 148.681 40.73 149.3 40.378C149.929 40.0153 150.633 39.834 151.412 39.834C152.148 39.834 152.809 40.0047 153.396 40.346C153.993 40.6873 154.463 41.1727 154.804 41.802C155.156 42.4313 155.332 43.1887 155.332 44.074C155.332 44.938 155.161 45.69 154.82 46.33C154.479 46.97 154.009 47.4607 153.412 47.802C152.825 48.1433 152.159 48.314 151.412 48.314ZM151.46 47.594C152.1 47.594 152.671 47.45 153.172 47.162C153.684 46.8633 154.084 46.4473 154.372 45.914C154.671 45.3807 154.82 44.7673 154.82 44.074C154.82 43.37 154.671 42.7567 154.372 42.234C154.084 41.7007 153.684 41.29 153.172 41.002C152.671 40.7033 152.1 40.554 151.46 40.554C150.82 40.554 150.244 40.7033 149.732 41.002C149.231 41.29 148.831 41.7007 148.532 42.234C148.244 42.7567 148.1 43.37 148.1 44.074C148.1 44.7673 148.244 45.3807 148.532 45.914C148.831 46.4473 149.231 46.8633 149.732 47.162C150.244 47.45 150.82 47.594 151.46 47.594ZM154.836 48.25V45.514L154.98 44.058L154.82 42.602V36.378H155.62V48.25H154.836ZM165.007 48.314C164.207 48.314 163.492 48.1327 162.863 47.77C162.244 47.4073 161.748 46.906 161.375 46.266C161.012 45.626 160.831 44.8953 160.831 44.074C160.831 43.242 161.012 42.5113 161.375 41.882C161.748 41.242 162.244 40.7407 162.863 40.378C163.492 40.0153 164.207 39.834 165.007 39.834C165.807 39.834 166.522 40.0153 167.151 40.378C167.78 40.7407 168.276 41.242 168.639 41.882C169.002 42.5113 169.183 43.242 169.183 44.074C169.183 44.8953 169.002 45.626 168.639 46.266C168.276 46.906 167.78 47.4073 167.151 47.77C166.522 48.1327 165.807 48.314 165.007 48.314ZM165.007 47.594C165.647 47.594 166.223 47.45 166.735 47.162C167.247 46.8633 167.647 46.4473 167.935 45.914C168.223 45.3807 168.367 44.7673 168.367 44.074C168.367 43.37 168.223 42.7567 167.935 42.234C167.647 41.7007 167.247 41.29 166.735 41.002C166.223 40.7033 165.647 40.554 165.007 40.554C164.367 40.554 163.791 40.7033 163.279 41.002C162.778 41.29 162.378 41.7007 162.079 42.234C161.791 42.7567 161.647 43.37 161.647 44.074C161.647 44.7673 161.791 45.3807 162.079 45.914C162.378 46.4473 162.778 46.8633 163.279 47.162C163.791 47.45 164.367 47.594 165.007 47.594Z" fill="#F0F4F8"/>
</svg>
