<svg width="316" height="79" viewBox="0 0 316 79" fill="none" xmlns="http://www.w3.org/2000/svg">
<rect width="316" height="79" fill="#00041C"/>
<path d="M106.85 36V18.5H114.05C115.6 18.5 116.925 18.75 118.025 19.25C119.142 19.75 120 20.4667 120.6 21.4C121.2 22.3333 121.5 23.4417 121.5 24.725C121.5 26.0083 121.2 27.1167 120.6 28.05C120 28.9833 119.142 29.7 118.025 30.2C116.925 30.7 115.6 30.95 114.05 30.95H108.65L110.1 29.425V36H106.85ZM110.1 29.775L108.65 28.2H113.9C115.333 28.2 116.408 27.9 117.125 27.3C117.858 26.6833 118.225 25.825 118.225 24.725C118.225 23.6083 117.858 22.75 117.125 22.15C116.408 21.55 115.333 21.25 113.9 21.25H108.65L110.1 19.65V29.775ZM130.922 36.175C129.438 36.175 128.138 35.8833 127.022 35.3C125.922 34.7 125.063 33.8833 124.447 32.85C123.847 31.8167 123.547 30.6417 123.547 29.325C123.547 27.9917 123.838 26.8167 124.422 25.8C125.022 24.7667 125.838 23.9583 126.872 23.375C127.922 22.7917 129.113 22.5 130.447 22.5C131.747 22.5 132.905 22.7833 133.922 23.35C134.938 23.9167 135.738 24.7167 136.322 25.75C136.905 26.7833 137.197 28 137.197 29.4C137.197 29.5333 137.188 29.6833 137.172 29.85C137.172 30.0167 137.163 30.175 137.147 30.325H126.022V28.25H135.497L134.272 28.9C134.288 28.1333 134.13 27.4583 133.797 26.875C133.463 26.2917 133.005 25.8333 132.422 25.5C131.855 25.1667 131.197 25 130.447 25C129.68 25 129.005 25.1667 128.422 25.5C127.855 25.8333 127.405 26.3 127.072 26.9C126.755 27.4833 126.597 28.175 126.597 28.975V29.475C126.597 30.275 126.78 30.9833 127.147 31.6C127.513 32.2167 128.03 32.6917 128.697 33.025C129.363 33.3583 130.13 33.525 130.997 33.525C131.747 33.525 132.422 33.4083 133.022 33.175C133.622 32.9417 134.155 32.575 134.622 32.075L136.297 34C135.697 34.7 134.938 35.2417 134.022 35.625C133.122 35.9917 132.088 36.175 130.922 36.175ZM146.098 36.175C144.815 36.175 143.657 35.8917 142.623 35.325C141.607 34.7417 140.807 33.9417 140.223 32.925C139.64 31.9083 139.348 30.7083 139.348 29.325C139.348 27.9417 139.64 26.7417 140.223 25.725C140.807 24.7083 141.607 23.9167 142.623 23.35C143.657 22.7833 144.815 22.5 146.098 22.5C147.215 22.5 148.215 22.75 149.098 23.25C149.982 23.7333 150.682 24.475 151.198 25.475C151.715 26.475 151.973 27.7583 151.973 29.325C151.973 30.875 151.723 32.1583 151.223 33.175C150.723 34.175 150.032 34.925 149.148 35.425C148.265 35.925 147.248 36.175 146.098 36.175ZM146.473 33.5C147.223 33.5 147.89 33.3333 148.473 33C149.073 32.6667 149.548 32.1833 149.898 31.55C150.265 30.9167 150.448 30.175 150.448 29.325C150.448 28.4583 150.265 27.7167 149.898 27.1C149.548 26.4667 149.073 25.9833 148.473 25.65C147.89 25.3167 147.223 25.15 146.473 25.15C145.723 25.15 145.048 25.3167 144.448 25.65C143.865 25.9833 143.39 26.4667 143.023 27.1C142.673 27.7167 142.498 28.4583 142.498 29.325C142.498 30.175 142.673 30.9167 143.023 31.55C143.39 32.1833 143.865 32.6667 144.448 33C145.048 33.3333 145.723 33.5 146.473 33.5ZM150.523 36V32.85L150.648 29.3L150.398 25.75V17.45H153.498V36H150.523ZM157.862 36V22.65H160.837V26.325L160.487 25.25C160.887 24.35 161.512 23.6667 162.362 23.2C163.228 22.7333 164.303 22.5 165.587 22.5V25.475C165.453 25.4417 165.328 25.425 165.212 25.425C165.095 25.4083 164.978 25.4 164.862 25.4C163.678 25.4 162.737 25.75 162.037 26.45C161.337 27.1333 160.987 28.1583 160.987 29.525V36H157.862ZM174.365 36.175C172.999 36.175 171.782 35.8833 170.715 35.3C169.649 34.7 168.807 33.8833 168.19 32.85C167.574 31.8167 167.265 30.6417 167.265 29.325C167.265 27.9917 167.574 26.8167 168.19 25.8C168.807 24.7667 169.649 23.9583 170.715 23.375C171.782 22.7917 172.999 22.5 174.365 22.5C175.749 22.5 176.974 22.7917 178.04 23.375C179.124 23.9583 179.965 24.7583 180.565 25.775C181.182 26.7917 181.49 27.975 181.49 29.325C181.49 30.6417 181.182 31.8167 180.565 32.85C179.965 33.8833 179.124 34.7 178.04 35.3C176.974 35.8833 175.749 36.175 174.365 36.175ZM174.365 33.5C175.132 33.5 175.815 33.3333 176.415 33C177.015 32.6667 177.482 32.1833 177.815 31.55C178.165 30.9167 178.34 30.175 178.34 29.325C178.34 28.4583 178.165 27.7167 177.815 27.1C177.482 26.4667 177.015 25.9833 176.415 25.65C175.815 25.3167 175.14 25.15 174.39 25.15C173.624 25.15 172.94 25.3167 172.34 25.65C171.757 25.9833 171.29 26.4667 170.94 27.1C170.59 27.7167 170.415 28.4583 170.415 29.325C170.415 30.175 170.59 30.9167 170.94 31.55C171.29 32.1833 171.757 32.6667 172.34 33C172.94 33.3333 173.615 33.5 174.365 33.5ZM192.188 36V18.5H194.863L202.513 31.275H201.113L208.638 18.5H211.313L211.338 36H208.263L208.238 23.325H208.888L202.488 34H201.038L194.538 23.325H195.288V36H192.188ZM222.29 36.175C220.807 36.175 219.507 35.8833 218.39 35.3C217.29 34.7 216.432 33.8833 215.815 32.85C215.215 31.8167 214.915 30.6417 214.915 29.325C214.915 27.9917 215.207 26.8167 215.79 25.8C216.39 24.7667 217.207 23.9583 218.24 23.375C219.29 22.7917 220.482 22.5 221.815 22.5C223.115 22.5 224.273 22.7833 225.29 23.35C226.307 23.9167 227.107 24.7167 227.69 25.75C228.273 26.7833 228.565 28 228.565 29.4C228.565 29.5333 228.557 29.6833 228.54 29.85C228.54 30.0167 228.532 30.175 228.515 30.325H217.39V28.25H226.865L225.64 28.9C225.657 28.1333 225.498 27.4583 225.165 26.875C224.832 26.2917 224.373 25.8333 223.79 25.5C223.223 25.1667 222.565 25 221.815 25C221.048 25 220.373 25.1667 219.79 25.5C219.223 25.8333 218.773 26.3 218.44 26.9C218.123 27.4833 217.965 28.175 217.965 28.975V29.475C217.965 30.275 218.148 30.9833 218.515 31.6C218.882 32.2167 219.398 32.6917 220.065 33.025C220.732 33.3583 221.498 33.525 222.365 33.525C223.115 33.525 223.79 33.4083 224.39 33.175C224.99 32.9417 225.523 32.575 225.99 32.075L227.665 34C227.065 34.7 226.307 35.2417 225.39 35.625C224.49 35.9917 223.457 36.175 222.29 36.175ZM239.392 22.5C240.458 22.5 241.408 22.7083 242.242 23.125C243.092 23.5417 243.758 24.1833 244.242 25.05C244.725 25.9 244.967 27 244.967 28.35V36H241.842V28.75C241.842 27.5667 241.558 26.6833 240.992 26.1C240.442 25.5167 239.667 25.225 238.667 25.225C237.933 25.225 237.283 25.375 236.717 25.675C236.15 25.975 235.708 26.425 235.392 27.025C235.092 27.6083 234.942 28.35 234.942 29.25V36H231.817V22.65H234.792V26.25L234.267 25.15C234.733 24.3 235.408 23.65 236.292 23.2C237.192 22.7333 238.225 22.5 239.392 22.5ZM255.48 36.175C253.997 36.175 252.697 35.8833 251.58 35.3C250.48 34.7 249.622 33.8833 249.005 32.85C248.405 31.8167 248.105 30.6417 248.105 29.325C248.105 27.9917 248.397 26.8167 248.98 25.8C249.58 24.7667 250.397 23.9583 251.43 23.375C252.48 22.7917 253.672 22.5 255.005 22.5C256.305 22.5 257.464 22.7833 258.48 23.35C259.497 23.9167 260.297 24.7167 260.88 25.75C261.464 26.7833 261.755 28 261.755 29.4C261.755 29.5333 261.747 29.6833 261.73 29.85C261.73 30.0167 261.722 30.175 261.705 30.325H250.58V28.25H260.055L258.83 28.9C258.847 28.1333 258.689 27.4583 258.355 26.875C258.022 26.2917 257.564 25.8333 256.98 25.5C256.414 25.1667 255.755 25 255.005 25C254.239 25 253.564 25.1667 252.98 25.5C252.414 25.8333 251.964 26.3 251.63 26.9C251.314 27.4833 251.155 28.175 251.155 28.975V29.475C251.155 30.275 251.339 30.9833 251.705 31.6C252.072 32.2167 252.589 32.6917 253.255 33.025C253.922 33.3583 254.689 33.525 255.555 33.525C256.305 33.525 256.98 33.4083 257.58 33.175C258.18 32.9417 258.714 32.575 259.18 32.075L260.855 34C260.255 34.7 259.497 35.2417 258.58 35.625C257.68 35.9917 256.647 36.175 255.48 36.175ZM263.785 36V34.025L272.01 24.075L272.585 25.15H263.935V22.65H275.085V24.625L266.86 34.575L266.235 33.5H275.31V36H263.785ZM284.52 36.175C283.037 36.175 281.737 35.8833 280.62 35.3C279.52 34.7 278.662 33.8833 278.045 32.85C277.445 31.8167 277.145 30.6417 277.145 29.325C277.145 27.9917 277.437 26.8167 278.02 25.8C278.62 24.7667 279.437 23.9583 280.47 23.375C281.52 22.7917 282.712 22.5 284.045 22.5C285.345 22.5 286.504 22.7833 287.52 23.35C288.537 23.9167 289.337 24.7167 289.92 25.75C290.504 26.7833 290.795 28 290.795 29.4C290.795 29.5333 290.787 29.6833 290.77 29.85C290.77 30.0167 290.762 30.175 290.745 30.325H279.62V28.25H289.095L287.87 28.9C287.887 28.1333 287.729 27.4583 287.395 26.875C287.062 26.2917 286.604 25.8333 286.02 25.5C285.454 25.1667 284.795 25 284.045 25C283.279 25 282.604 25.1667 282.02 25.5C281.454 25.8333 281.004 26.3 280.67 26.9C280.354 27.4833 280.195 28.175 280.195 28.975V29.475C280.195 30.275 280.379 30.9833 280.745 31.6C281.112 32.2167 281.629 32.6917 282.295 33.025C282.962 33.3583 283.729 33.525 284.595 33.525C285.345 33.525 286.02 33.4083 286.62 33.175C287.22 32.9417 287.754 32.575 288.22 32.075L289.895 34C289.295 34.7 288.537 35.2417 287.62 35.625C286.72 35.9917 285.687 36.175 284.52 36.175ZM298.172 36.175C297.055 36.175 295.98 36.0333 294.947 35.75C293.93 35.45 293.122 35.0917 292.522 34.675L293.722 32.3C294.322 32.6833 295.039 33 295.872 33.25C296.705 33.5 297.539 33.625 298.372 33.625C299.355 33.625 300.064 33.4917 300.497 33.225C300.947 32.9583 301.172 32.6 301.172 32.15C301.172 31.7833 301.022 31.5083 300.722 31.325C300.422 31.125 300.03 30.975 299.547 30.875C299.064 30.775 298.522 30.6833 297.922 30.6C297.339 30.5167 296.747 30.4083 296.147 30.275C295.564 30.125 295.03 29.9167 294.547 29.65C294.064 29.3667 293.672 28.9917 293.372 28.525C293.072 28.0583 292.922 27.4417 292.922 26.675C292.922 25.825 293.164 25.0917 293.647 24.475C294.13 23.8417 294.805 23.3583 295.672 23.025C296.555 22.675 297.597 22.5 298.797 22.5C299.697 22.5 300.605 22.6 301.522 22.8C302.439 23 303.197 23.2833 303.797 23.65L302.597 26.025C301.964 25.6417 301.322 25.3833 300.672 25.25C300.039 25.1 299.405 25.025 298.772 25.025C297.822 25.025 297.114 25.1667 296.647 25.45C296.197 25.7333 295.972 26.0917 295.972 26.525C295.972 26.925 296.122 27.225 296.422 27.425C296.722 27.625 297.114 27.7833 297.597 27.9C298.08 28.0167 298.614 28.1167 299.197 28.2C299.797 28.2667 300.389 28.375 300.972 28.525C301.555 28.675 302.089 28.8833 302.572 29.15C303.072 29.4 303.472 29.7583 303.772 30.225C304.072 30.6917 304.222 31.3 304.222 32.05C304.222 32.8833 303.972 33.6083 303.472 34.225C302.989 34.8417 302.297 35.325 301.397 35.675C300.497 36.0083 299.422 36.175 298.172 36.175Z" fill="#F0F4F8"/>
<path d="M157.2 61V58.62L157.16 58.26V54.34C157.16 53.3667 156.893 52.6267 156.36 52.12C155.84 51.6133 155.073 51.36 154.06 51.36C153.34 51.36 152.667 51.4867 152.04 51.74C151.427 51.98 150.9 52.2933 150.46 52.68L149.96 51.96C150.48 51.4933 151.107 51.1333 151.84 50.88C152.573 50.6133 153.34 50.48 154.14 50.48C155.433 50.48 156.427 50.8067 157.12 51.46C157.813 52.1133 158.16 53.0867 158.16 54.38V61H157.2ZM153.44 61.08C152.667 61.08 151.993 60.96 151.42 60.72C150.86 60.4667 150.427 60.1133 150.12 59.66C149.827 59.2067 149.68 58.6867 149.68 58.1C149.68 57.5667 149.8 57.0867 150.04 56.66C150.293 56.22 150.707 55.8667 151.28 55.6C151.853 55.32 152.62 55.18 153.58 55.18H157.42V55.96H153.6C152.52 55.96 151.76 56.16 151.32 56.56C150.893 56.96 150.68 57.46 150.68 58.06C150.68 58.7267 150.933 59.26 151.44 59.66C151.947 60.06 152.66 60.26 153.58 60.26C154.46 60.26 155.2 60.06 155.8 59.66C156.413 59.26 156.867 58.68 157.16 57.92L157.44 58.6C157.16 59.36 156.68 59.9667 156 60.42C155.333 60.86 154.48 61.08 153.44 61.08ZM169.05 61.08C168.077 61.08 167.197 60.86 166.41 60.42C165.637 59.9667 165.023 59.34 164.57 58.54C164.117 57.74 163.89 56.82 163.89 55.78C163.89 54.7267 164.117 53.8067 164.57 53.02C165.023 52.22 165.637 51.6 166.41 51.16C167.197 50.7067 168.077 50.48 169.05 50.48C169.97 50.48 170.797 50.6933 171.53 51.12C172.277 51.5467 172.863 52.1533 173.29 52.94C173.73 53.7267 173.95 54.6733 173.95 55.78C173.95 56.86 173.737 57.8 173.31 58.6C172.883 59.4 172.297 60.0133 171.55 60.44C170.817 60.8667 169.983 61.08 169.05 61.08ZM169.11 60.18C169.91 60.18 170.623 60 171.25 59.64C171.89 59.2667 172.39 58.7467 172.75 58.08C173.123 57.4133 173.31 56.6467 173.31 55.78C173.31 54.9 173.123 54.1333 172.75 53.48C172.39 52.8133 171.89 52.3 171.25 51.94C170.623 51.5667 169.91 51.38 169.11 51.38C168.31 51.38 167.59 51.5667 166.95 51.94C166.323 52.3 165.823 52.8133 165.45 53.48C165.09 54.1333 164.91 54.9 164.91 55.78C164.91 56.6467 165.09 57.4133 165.45 58.08C165.823 58.7467 166.323 59.2667 166.95 59.64C167.59 60 168.31 60.18 169.11 60.18ZM173.33 61V57.58L173.51 55.76L173.31 53.94V46.16H174.31V61H173.33ZM183.916 61L179.216 50.56H180.276L184.676 60.44H184.196L188.636 50.56H189.656L184.936 61H183.916ZM198.38 61.08C197.38 61.08 196.486 60.8533 195.7 60.4C194.926 59.9467 194.306 59.32 193.84 58.52C193.386 57.72 193.16 56.8067 193.16 55.78C193.16 54.74 193.386 53.8267 193.84 53.04C194.306 52.24 194.926 51.6133 195.7 51.16C196.486 50.7067 197.38 50.48 198.38 50.48C199.38 50.48 200.273 50.7067 201.06 51.16C201.846 51.6133 202.466 52.24 202.92 53.04C203.373 53.8267 203.6 54.74 203.6 55.78C203.6 56.8067 203.373 57.72 202.92 58.52C202.466 59.32 201.846 59.9467 201.06 60.4C200.273 60.8533 199.38 61.08 198.38 61.08ZM198.38 60.18C199.18 60.18 199.9 60 200.54 59.64C201.18 59.2667 201.68 58.7467 202.04 58.08C202.4 57.4133 202.58 56.6467 202.58 55.78C202.58 54.9 202.4 54.1333 202.04 53.48C201.68 52.8133 201.18 52.3 200.54 51.94C199.9 51.5667 199.18 51.38 198.38 51.38C197.58 51.38 196.86 51.5667 196.22 51.94C195.593 52.3 195.093 52.8133 194.72 53.48C194.36 54.1333 194.18 54.9 194.18 55.78C194.18 56.6467 194.36 57.4133 194.72 58.08C195.093 58.7467 195.593 59.2667 196.22 59.64C196.86 60 197.58 60.18 198.38 60.18ZM213.792 64.96C212.845 64.96 211.945 64.8133 211.092 64.52C210.239 64.2267 209.545 63.82 209.012 63.3L209.552 62.54C210.072 63.02 210.692 63.3933 211.412 63.66C212.145 63.9267 212.932 64.06 213.772 64.06C215.172 64.06 216.199 63.7333 216.852 63.08C217.519 62.4267 217.852 61.4 217.852 60V57.1L218.052 55.54L217.892 53.98V50.56H218.852V59.88C218.852 61.6267 218.425 62.9067 217.572 63.72C216.732 64.5467 215.472 64.96 213.792 64.96ZM213.512 60.62C212.525 60.62 211.639 60.4067 210.852 59.98C210.079 59.54 209.459 58.94 208.992 58.18C208.539 57.4067 208.312 56.5267 208.312 55.54C208.312 54.54 208.539 53.66 208.992 52.9C209.459 52.14 210.079 51.5467 210.852 51.12C211.639 50.6933 212.525 50.48 213.512 50.48C214.459 50.48 215.305 50.6867 216.052 51.1C216.812 51.5 217.412 52.08 217.852 52.84C218.292 53.5867 218.512 54.4867 218.512 55.54C218.512 56.58 218.292 57.48 217.852 58.24C217.412 59 216.812 59.5867 216.052 60C215.305 60.4133 214.459 60.62 213.512 60.62ZM213.592 59.72C214.432 59.72 215.172 59.5467 215.812 59.2C216.452 58.84 216.952 58.3467 217.312 57.72C217.685 57.08 217.872 56.3533 217.872 55.54C217.872 54.7133 217.685 53.9867 217.312 53.36C216.952 52.7333 216.452 52.2467 215.812 51.9C215.172 51.5533 214.432 51.38 213.592 51.38C212.779 51.38 212.045 51.5533 211.392 51.9C210.752 52.2467 210.245 52.7333 209.872 53.36C209.512 53.9867 209.332 54.7133 209.332 55.54C209.332 56.3533 209.512 57.08 209.872 57.72C210.245 58.3467 210.752 58.84 211.392 59.2C212.045 59.5467 212.779 59.72 213.592 59.72ZM232.415 61V58.62L232.375 58.26V54.34C232.375 53.3667 232.108 52.6267 231.575 52.12C231.055 51.6133 230.288 51.36 229.275 51.36C228.555 51.36 227.882 51.4867 227.255 51.74C226.642 51.98 226.115 52.2933 225.675 52.68L225.175 51.96C225.695 51.4933 226.322 51.1333 227.055 50.88C227.788 50.6133 228.555 50.48 229.355 50.48C230.648 50.48 231.642 50.8067 232.335 51.46C233.028 52.1133 233.375 53.0867 233.375 54.38V61H232.415ZM228.655 61.08C227.882 61.08 227.208 60.96 226.635 60.72C226.075 60.4667 225.642 60.1133 225.335 59.66C225.042 59.2067 224.895 58.6867 224.895 58.1C224.895 57.5667 225.015 57.0867 225.255 56.66C225.508 56.22 225.922 55.8667 226.495 55.6C227.068 55.32 227.835 55.18 228.795 55.18H232.635V55.96H228.815C227.735 55.96 226.975 56.16 226.535 56.56C226.108 56.96 225.895 57.46 225.895 58.06C225.895 58.7267 226.148 59.26 226.655 59.66C227.162 60.06 227.875 60.26 228.795 60.26C229.675 60.26 230.415 60.06 231.015 59.66C231.628 59.26 232.082 58.68 232.375 57.92L232.655 58.6C232.375 59.36 231.895 59.9667 231.215 60.42C230.548 60.86 229.695 61.08 228.655 61.08ZM244.265 61.08C243.292 61.08 242.412 60.86 241.625 60.42C240.852 59.9667 240.238 59.34 239.785 58.54C239.332 57.74 239.105 56.82 239.105 55.78C239.105 54.7267 239.332 53.8067 239.785 53.02C240.238 52.22 240.852 51.6 241.625 51.16C242.412 50.7067 243.292 50.48 244.265 50.48C245.185 50.48 246.012 50.6933 246.745 51.12C247.492 51.5467 248.078 52.1533 248.505 52.94C248.945 53.7267 249.165 54.6733 249.165 55.78C249.165 56.86 248.952 57.8 248.525 58.6C248.098 59.4 247.512 60.0133 246.765 60.44C246.032 60.8667 245.198 61.08 244.265 61.08ZM244.325 60.18C245.125 60.18 245.838 60 246.465 59.64C247.105 59.2667 247.605 58.7467 247.965 58.08C248.338 57.4133 248.525 56.6467 248.525 55.78C248.525 54.9 248.338 54.1333 247.965 53.48C247.605 52.8133 247.105 52.3 246.465 51.94C245.838 51.5667 245.125 51.38 244.325 51.38C243.525 51.38 242.805 51.5667 242.165 51.94C241.538 52.3 241.038 52.8133 240.665 53.48C240.305 54.1333 240.125 54.9 240.125 55.78C240.125 56.6467 240.305 57.4133 240.665 58.08C241.038 58.7467 241.538 59.2667 242.165 59.64C242.805 60 243.525 60.18 244.325 60.18ZM248.545 61V57.58L248.725 55.76L248.525 53.94V46.16H249.525V61H248.545ZM260.571 61.08C259.571 61.08 258.678 60.8533 257.891 60.4C257.118 59.9467 256.498 59.32 256.031 58.52C255.578 57.72 255.351 56.8067 255.351 55.78C255.351 54.74 255.578 53.8267 256.031 53.04C256.498 52.24 257.118 51.6133 257.891 51.16C258.678 50.7067 259.571 50.48 260.571 50.48C261.571 50.48 262.464 50.7067 263.251 51.16C264.038 51.6133 264.658 52.24 265.111 53.04C265.564 53.8267 265.791 54.74 265.791 55.78C265.791 56.8067 265.564 57.72 265.111 58.52C264.658 59.32 264.038 59.9467 263.251 60.4C262.464 60.8533 261.571 61.08 260.571 61.08ZM260.571 60.18C261.371 60.18 262.091 60 262.731 59.64C263.371 59.2667 263.871 58.7467 264.231 58.08C264.591 57.4133 264.771 56.6467 264.771 55.78C264.771 54.9 264.591 54.1333 264.231 53.48C263.871 52.8133 263.371 52.3 262.731 51.94C262.091 51.5667 261.371 51.38 260.571 51.38C259.771 51.38 259.051 51.5667 258.411 51.94C257.784 52.3 257.284 52.8133 256.911 53.48C256.551 54.1333 256.371 54.9 256.371 55.78C256.371 56.6467 256.551 57.4133 256.911 58.08C257.284 58.7467 257.784 59.2667 258.411 59.64C259.051 60 259.771 60.18 260.571 60.18Z" fill="#F0F4F8"/>
<path d="M82.7356 34.5625L74.6875 14.8125H79.625V9.875H54.9375V4.9375H50V9.875H25.3125V14.8125H30.25L22.2513 34.5625H20.375V39.5H21.1156C21.8859 41.9589 23.4511 44.0919 25.5594 45.5731C27.6413 47.0828 30.1471 47.8957 32.7188 47.8957C35.2904 47.8957 37.7962 47.0828 39.8781 45.5731C41.9882 44.0828 43.5634 41.9537 44.3713 39.5H45.0625V34.5625H42.8406L34.595 14.8125H50V54.3125H40.125L38.1994 55.2013L28.3244 67.5944L30.25 71.5938H74.6875L76.6131 67.5944L66.7381 55.2013L64.8125 54.3125H54.9375V14.8125H70.3919L62.1463 34.5625H59.875V39.5H60.6156C61.4232 41.9462 62.9816 44.0755 65.0693 45.5848C67.1569 47.0941 69.6674 47.9065 72.2434 47.9065C74.8195 47.9065 77.33 47.0941 79.4176 45.5848C81.5053 44.0755 83.0637 41.9462 83.8712 39.5H84.5625V34.5625H82.7356ZM36.2737 42.0181C35.1849 42.6208 33.9632 42.9431 32.7188 42.9562C31.489 42.9498 30.2817 42.6267 29.2131 42.0181C28.1235 41.4208 27.2054 40.5538 26.5469 39.5H38.8906C38.2376 40.541 37.339 41.4056 36.2737 42.0181V42.0181ZM37.5081 34.5625H27.6331L32.5706 22.7125L37.5081 34.5625ZM63.6275 59.25L69.75 66.6562H35.1875L41.31 59.25H63.6275ZM72.4162 22.8112L77.3537 34.6612H67.4787L72.4162 22.8112V22.8112ZM75.7738 42.1169C74.6942 42.7425 73.4664 43.0665 72.2188 43.055C70.9859 43.0725 69.7724 42.7478 68.7131 42.1169C67.6218 41.4782 66.7058 40.5792 66.0469 39.5H78.3906C77.7785 40.5986 76.8723 41.5048 75.7738 42.1169V42.1169Z" fill="white"/>
</svg>
