<svg width="77" height="78" viewBox="0 0 77 78" fill="none" xmlns="http://www.w3.org/2000/svg">
<g clip-path="url(#clip0_34_313)">
<path d="M1.64281 38.3364C1.64101 44.8564 3.34463 51.2228 6.58405 56.8342L1.33301 76.0066L20.9536 70.862C26.3804 73.8163 32.4607 75.3643 38.6395 75.3647H38.6558C59.0532 75.3647 75.6573 58.7667 75.666 38.3656C75.6699 28.4798 71.8235 19.1839 64.8352 12.1901C57.848 5.19693 48.5554 1.34362 38.6542 1.33911C18.2544 1.33911 1.65154 17.9362 1.64311 38.3364" fill="url(#paint0_linear_34_313)"/>
<path d="M0.321836 38.3243C0.31973 45.079 2.08441 51.673 5.43933 57.4853L0 77.345L20.3241 72.0161C25.924 75.0693 32.229 76.6791 38.6447 76.6815H38.6612C59.7905 76.6815 76.991 59.4864 77 38.355C77.0036 28.114 73.0189 18.4839 65.7809 11.2396C58.542 3.99618 48.917 0.00421094 38.6612 0C17.5283 0 0.330559 17.1927 0.322137 38.3243H0.321836ZM12.4253 56.4843L11.6664 55.2797C8.47632 50.2073 6.79254 44.3457 6.79495 38.3268C6.80187 20.7626 21.0962 6.47281 38.6733 6.47281C47.1854 6.47642 55.1849 9.79464 61.2018 15.8151C67.2183 21.8361 70.529 29.8399 70.5269 38.3526C70.5191 55.9167 56.2244 70.2084 38.6612 70.2084H38.6486C32.9298 70.2054 27.3212 68.6696 22.4299 65.7673L21.2658 65.077L9.20511 68.2392L12.4253 56.484V56.4843Z" fill="url(#paint1_linear_34_313)"/>
<path d="M29.0794 22.3024C28.3617 20.7073 27.6064 20.6751 26.924 20.6472C26.3651 20.6231 25.7263 20.6249 25.088 20.6249C24.4491 20.6249 23.4112 20.8652 22.5338 21.8232C21.6555 22.7821 19.1807 25.0993 19.1807 29.8123C19.1807 34.5255 22.6135 39.0802 23.092 39.72C23.5712 40.3586 29.7191 50.3397 39.456 54.1795C47.5482 57.3704 49.195 56.7358 50.9513 56.5758C52.7078 56.4164 56.6192 54.2592 57.4172 52.0223C58.2158 49.7857 58.2158 47.8685 57.9763 47.4678C57.7369 47.0687 57.098 46.829 56.1401 46.3501C55.1818 45.871 50.4721 43.5535 49.5942 43.2337C48.7159 42.9143 48.0773 42.7549 47.4385 43.7141C46.7996 44.6718 44.9651 46.829 44.406 47.4678C43.8474 48.1082 43.2883 48.1879 42.3306 47.7088C41.372 47.2281 38.2869 46.2178 34.6267 42.9546C31.7789 40.4154 29.8563 37.2798 29.2974 36.3206C28.7386 35.3629 29.2376 34.8437 29.7179 34.3664C30.1484 33.9372 30.6762 33.2478 31.1557 32.6886C31.6333 32.1292 31.7927 31.7301 32.1122 31.0912C32.4319 30.4517 32.2719 29.8923 32.0327 29.4131C31.7927 28.934 29.9312 24.1967 29.0794 22.3027" fill="white"/>
</g>
<defs>
<linearGradient id="paint0_linear_34_313" x1="38.4995" y1="76.0066" x2="38.4995" y2="1.33911" gradientUnits="userSpaceOnUse">
<stop stop-color="#1FAF38"/>
<stop offset="1" stop-color="#60D669"/>
</linearGradient>
<linearGradient id="paint1_linear_34_313" x1="38.5" y1="77.345" x2="38.5" y2="0" gradientUnits="userSpaceOnUse">
<stop stop-color="#F9F9F9"/>
<stop offset="1" stop-color="white"/>
</linearGradient>
<clipPath id="clip0_34_313">
<rect width="77" height="77.6016" fill="white"/>
</clipPath>
</defs>
</svg>
